<svg id="Layer_1" data-name="Layer 1" xmlns="http://www.w3.org/2000/svg" viewBox="0 0 80 80"><defs><style>.cls-1{fill:#fff;opacity:0;}.cls-2{fill:none;stroke:red;stroke-linecap:round;stroke-linejoin:round;stroke-width:2px;}</style></defs><title>icon-mic</title><rect class="cls-1" width="80" height="80"/><rect class="cls-2" x="28.97" y="9" width="22.05" height="48.49" rx="11.03"/><path class="cls-2" d="M56.54,40v7.15A16.63,16.63,0,0,1,40,63.85h0a16.63,16.63,0,0,1-16.54-16.7V40"/><line class="cls-2" x1="40" y1="63.85" x2="40" y2="71"/><line class="cls-2" x1="32.91" y1="71" x2="47.09" y2="71"/><line class="cls-2" x1="28.97" y1="40" x2="35.32" y2="40"/><line class="cls-2" x1="48.27" y1="40" x2="51.03" y2="40"/><line class="cls-2" x1="23.46" y1="29.51" x2="23.46" y2="23.15"/><line class="cls-2" x1="40" y1="26.33" x2="40" y2="26.33"/><line class="cls-2" x1="17.95" y1="31.1" x2="17.95" y2="21.56"/><line class="cls-2" x1="56.54" y1="29.51" x2="56.54" y2="23.15"/><line class="cls-2" x1="62.05" y1="31.1" x2="62.05" y2="21.56"/></svg>