<svg id="Layer_1" data-name="Layer 1" xmlns="http://www.w3.org/2000/svg" viewBox="0 0 80 80"><defs><style>.cls-1,.cls-3{fill:#fff;}.cls-1{opacity:0;}.cls-2{fill:none;}.cls-2,.cls-3{stroke:red;stroke-linecap:round;stroke-linejoin:round;stroke-width:2px;}</style></defs><title>icon-hands</title><rect class="cls-1" width="80" height="80"/><line class="cls-2" x1="1" y1="38.77" x2="19.66" y2="11.89"/><path class="cls-2" d="M52.53,45l5,3.55a4.13,4.13,0,0,1,1,5.73h0a4.05,4.05,0,0,1-5.68,1l-5-3.56"/><path class="cls-2" d="M47.85,51.78l4,2.83a4.14,4.14,0,0,1,1,5.73h0a4,4,0,0,1-5.68,1l-2.54-1.79"/><line class="cls-2" x1="69.49" y1="12.27" x2="79" y2="43.66"/><path class="cls-2" d="M62,17.8l-1.87.58-2.51.48L42.37,17.41A12.48,12.48,0,0,0,31,22.74l-3.69,5.32a3.86,3.86,0,0,0,.93,5.35h0A3.78,3.78,0,0,0,33,33.08l4.91-4.61a3.77,3.77,0,0,1,4.77-.34L66,44.65l3.76-1.16"/><path class="cls-2" d="M21.88,49,19,53.16a3.74,3.74,0,0,1-5.23.93h0a3.81,3.81,0,0,1-.92-5.28l2.87-4.13A3.73,3.73,0,0,1,21,43.75h0A3.8,3.8,0,0,1,21.88,49Z"/><path class="cls-2" d="M28.56,52.6l-4.31,6.21a3.74,3.74,0,0,1-5.23.93h0a3.82,3.82,0,0,1-.92-5.28l4.31-6.2a3.73,3.73,0,0,1,5.23-.93h0A3.8,3.8,0,0,1,28.56,52.6Z"/><path class="cls-2" d="M34.35,57.46l-3.59,5.17a3.73,3.73,0,0,1-5.23.93h0a3.8,3.8,0,0,1-.92-5.27l3.59-5.17a3.74,3.74,0,0,1,5.23-.93h0A3.81,3.81,0,0,1,34.35,57.46Z"/><line class="cls-2" x1="11.76" y1="38.67" x2="14.49" y2="46.46"/><path class="cls-2" d="M56,47.6l3.57,2.52a4.05,4.05,0,0,0,5.68-1,4.14,4.14,0,0,0-1-5.73L46.45,30.81l-3.8-2.68a3.77,3.77,0,0,0-4.77.34L33,33.08a3.78,3.78,0,0,1-4.77.33h0a3.86,3.86,0,0,1-.93-5.35L31,22.74c.17-.24.37-.46.56-.69l-8.27.07"/><path class="cls-2" d="M38.23,65.08l3.25,2.29a4.06,4.06,0,0,0,5.68-1h0a4.14,4.14,0,0,0-1-5.73l-1.52-1.07"/><path class="cls-3" d="M39.42,63.36,38,65.43a3.74,3.74,0,0,1-5.23.93h0a3.81,3.81,0,0,1-.92-5.28L33.27,59a3.74,3.74,0,0,1,5.23-.93h0A3.81,3.81,0,0,1,39.42,63.36Z"/></svg>