<svg id="Layer_1" data-name="Layer 1" xmlns="http://www.w3.org/2000/svg" viewBox="0 0 80 80"><defs><style>.cls-1{fill:#fff;opacity:0;}.cls-2{fill:none;stroke:red;stroke-linecap:round;stroke-linejoin:round;stroke-width:2px;}</style></defs><title>icon-ladder</title><rect class="cls-1" width="80" height="80"/><line class="cls-2" x1="9" y1="71" x2="71" y2="71"/><path class="cls-2" d="M15,66.5v-6a2,2,0,0,1,2-2H71"/><path class="cls-2" d="M25,54.5v-4a2,2,0,0,1,2-2H71"/><path class="cls-2" d="M35,44.5v-2a2,2,0,0,1,2-2H71"/><path class="cls-2" d="M44,36.5v-1a2,2,0,0,1,2-2H71"/><path class="cls-2" d="M49,21.69c6,2.4,12-2.4,18,0v-12c-6-2.4-12,2.4-18,0a47.2,47.2,0,0,0,5,6.64A32.4,32.4,0,0,1,49,21.69Z"/><line class="cls-2" x1="67" y1="21.69" x2="67" y2="33.5"/></svg>