<svg id="Layer_1" data-name="Layer 1" xmlns="http://www.w3.org/2000/svg" viewBox="0 0 80 80"><defs><style>.cls-1{fill:#fff;opacity:0;}.cls-2{fill:none;stroke:red;stroke-linecap:round;stroke-linejoin:round;stroke-width:2px;}</style></defs><title>icon-chess</title><rect class="cls-1" width="80" height="80"/><line class="cls-2" x1="22" y1="79" x2="58" y2="79"/><path class="cls-2" d="M36.2,66H27.14A2.08,2.08,0,0,0,25,68v4a2.08,2.08,0,0,0,2.14,2H52.86A2.08,2.08,0,0,0,55,72V68a2.08,2.08,0,0,0-2.14-2h-6"/><polyline class="cls-2" points="46.82 20 51 20 47 15 33 15 29 20 36.78 20"/><path class="cls-2" d="M45,5.5H43V4a3,3,0,0,0-3-3H40a3,3,0,0,0-3,3V5.5H35a1,1,0,0,0-1,1v3a1,1,0,0,0,1,1h2V15h6V10.5h2a1,1,0,0,0,1-1v-3A1,1,0,0,0,45,5.5Z"/><path class="cls-2" d="M51,20a46.66,46.66,0,0,0-3.4,9.7H48a2,2,0,0,1,0,4H46.78A56.07,56.07,0,0,0,46,43a53.73,53.73,0,0,0,5,23"/><path class="cls-2" d="M29,66a53.73,53.73,0,0,0,5-23,56.07,56.07,0,0,0-.78-9.3H32a2,2,0,1,1,0-4h.4A46.66,46.66,0,0,0,29,20"/><rect class="cls-2" x="30" y="29.7" width="20" height="4" rx="2"/></svg>