<svg width="20" height="20" viewBox="0 0 20 20" fill="none" xmlns="http://www.w3.org/2000/svg">
<path d="M18.3387 2.87829H14.1775V2.19984C14.1775 0.986842 13.1907 0 11.9777 0H8.02208C6.80908 0 5.82224 0.986842 5.82224 2.19984V2.87829H1.66106C1.35267 2.87829 1.10596 3.125 1.10596 3.43339C1.10596 3.74178 1.35267 3.98849 1.66106 3.98849H2.66435V17.0313C2.66435 18.6678 3.99658 20 5.6331 20H14.3666C16.0032 20 17.3354 18.6678 17.3354 17.0313V3.98849H18.3387C18.6471 3.98849 18.8938 3.74178 18.8938 3.43339C18.8938 3.125 18.6471 2.87829 18.3387 2.87829ZM6.93244 2.19984C6.93244 1.59951 7.42175 1.1102 8.02208 1.1102H11.9777C12.578 1.1102 13.0673 1.59951 13.0673 2.19984V2.87829H6.93244V2.19984ZM16.2252 17.0313C16.2252 18.0551 15.3905 18.8898 14.3666 18.8898H5.6331C4.60925 18.8898 3.77454 18.0551 3.77454 17.0313V3.98849H16.2293V17.0313H16.2252Z" fill="#C2C2C2"/>
<path d="M9.99993 16.8997C10.3083 16.8997 10.555 16.653 10.555 16.3446V6.53372C10.555 6.22533 10.3083 5.97862 9.99993 5.97862C9.69154 5.97862 9.44482 6.22533 9.44482 6.53372V16.3405C9.44482 16.6489 9.69154 16.8997 9.99993 16.8997Z" fill="#C2C2C2"/>
<path d="M6.37785 16.287C6.68624 16.287 6.93295 16.0403 6.93295 15.7319V7.14226C6.93295 6.83387 6.68624 6.58716 6.37785 6.58716C6.06946 6.58716 5.82275 6.83387 5.82275 7.14226V15.7319C5.82275 16.0403 6.07358 16.287 6.37785 16.287Z" fill="#C2C2C2"/>
<path d="M13.6225 16.287C13.9309 16.287 14.1776 16.0403 14.1776 15.7319V7.14226C14.1776 6.83387 13.9309 6.58716 13.6225 6.58716C13.3141 6.58716 13.0674 6.83387 13.0674 7.14226V15.7319C13.0674 16.0403 13.3141 16.287 13.6225 16.287Z" fill="#C2C2C2"/>
</svg>
