<svg width="23" height="20" viewBox="0 0 23 20" fill="none" xmlns="http://www.w3.org/2000/svg">
<path d="M2.69226 0.359021C2.88171 0.160275 3.19599 0.151488 3.39625 0.339339L13.2295 9.56326C13.4389 9.7597 13.4403 10.0917 13.2324 10.2899L3.40415 19.6578C3.20539 19.8472 2.89106 19.841 2.70002 19.6437L0.850678 17.7344C0.657461 17.535 0.663824 17.2163 0.864847 17.0246L7.90845 10.311C8.1163 10.1129 8.11497 9.7808 7.90555 9.58436L0.878234 2.99251C0.675688 2.80252 0.666779 2.48387 0.858394 2.28285L2.69226 0.359021Z" fill="#A7A8A8"/>
<path d="M11.5771 0.359021C11.7665 0.160275 12.0808 0.151488 12.2811 0.339339L22.1143 9.56326C22.3238 9.7597 22.3251 10.0917 22.1172 10.2899L12.289 19.6578C12.0902 19.8472 11.7759 19.841 11.5848 19.6437L9.7355 17.7344C9.54228 17.535 9.54864 17.2163 9.74967 17.0247L16.7933 10.311C17.0011 10.1129 16.9998 9.7808 16.7904 9.58436L9.76305 2.99251C9.56051 2.80252 9.5516 2.48387 9.74321 2.28285L11.5771 0.359021Z" fill="#A7A8A8"/>
</svg>
