<svg width="35" height="30" viewBox="0 0 35 30" fill="none" xmlns="http://www.w3.org/2000/svg">
<path d="M1.02538 20.7692H8.98776L21.1031 29.8078C21.4173 30.0423 21.8213 30.0641 22.1547 29.8627C22.4876 29.6617 22.6952 29.2711 22.6952 28.8461V1.15381C22.6952 0.728812 22.4876 0.338197 22.1548 0.137196C21.8219 -0.0638037 21.418 -0.0426498 21.1032 0.19212L8.98776 9.23074H1.02538C0.459098 9.23074 0 9.74736 0 10.3846V19.6154C0 20.2526 0.459098 20.7692 1.02538 20.7692V20.7692ZM20.6444 26.6967L10.3222 18.996V11.004L20.6444 3.3032V26.6967ZM2.05077 11.5384H8.27143V18.4615H2.05077V11.5384Z" fill="#A7A8A8"/>
<path d="M30.2427 6.02899C29.8423 6.4796 29.8423 7.21012 30.2427 7.66072C31.988 9.62467 32.9492 12.231 32.9492 14.9996C32.9492 17.7682 31.988 20.3745 30.2427 22.3385C29.8423 22.7891 29.8423 23.5196 30.2427 23.9702C30.6431 24.4208 31.2924 24.4209 31.6928 23.9702C33.8255 21.5704 35 18.3846 35 14.9996C35 11.6146 33.8255 8.42878 31.6928 6.02899C31.2924 5.57839 30.6431 5.57839 30.2427 6.02899V6.02899Z" fill="#A7A8A8"/>
<path d="M27.3438 20.7094C27.7442 21.16 28.3935 21.1601 28.7939 20.7094C30.1509 19.1824 30.8982 17.1548 30.8982 15.0003C30.8982 12.8457 30.1509 10.8181 28.7939 9.2911C28.3935 8.84047 27.7442 8.84047 27.3438 9.2911C26.9433 9.74172 26.9433 10.4723 27.3438 10.9229C28.3134 12.014 28.8474 13.4621 28.8474 15.0003C28.8474 16.5384 28.3134 17.9865 27.3438 19.0776C26.9433 19.5282 26.9433 20.2588 27.3438 20.7094V20.7094Z" fill="#A7A8A8"/>
<path d="M24.4454 17.4473C24.8458 17.898 25.495 17.898 25.8955 17.4472C26.4764 16.7933 26.7964 15.924 26.7964 14.9993C26.7964 14.0747 26.4764 13.2053 25.8955 12.5514C25.4951 12.1007 24.8459 12.1007 24.4454 12.5514C24.0449 13.002 24.0449 13.7327 24.4453 14.1833C24.639 14.4013 24.7457 14.6911 24.7457 14.9993C24.7457 15.3076 24.639 15.5973 24.4453 15.8154C24.0449 16.266 24.0449 16.9967 24.4454 17.4473Z" fill="#A7A8A8"/>
</svg>
